<svg xmlns="http://www.w3.org/2000/svg" width="1600" height="900" viewBox="0 0 1600 900" role="img" aria-labelledby="title desc">
  <title id="title">Minesweeper and Secret Room Concept</title>
  <desc id="desc">A dark storyboard showing the Minesweeper board, a hidden interaction, and the easter egg room that appears after discovery.</desc>
  <rect width="1600" height="900" fill="#0d1117"/>
  <rect x="48" y="48" width="1504" height="804" rx="18" fill="#161b22" stroke="#3d444d" stroke-width="3"/>
  <rect x="48" y="48" width="1504" height="52" fill="#202734" stroke="#3d444d" stroke-width="3"/>
  <text x="80" y="82" fill="#f0f6fc" font-family="Verdana, Arial, sans-serif" font-size="24" font-weight="700">Minesweeper and Secret Room</text>

  <rect x="85" y="145" width="450" height="620" rx="18" fill="#111827" stroke="#f78166" stroke-width="3"/>
  <rect x="85" y="145" width="450" height="46" rx="18" fill="#202734" stroke="#f78166" stroke-width="3"/>
  <text x="120" y="175" fill="#f0f6fc" font-family="Verdana, Arial, sans-serif" font-size="18" font-weight="700">Minesweeper Board</text>
  <rect x="125" y="220" width="370" height="480" rx="10" fill="#0f1720" stroke="#8b949e" stroke-width="2"/>
  <g fill="#d0d7de" stroke="#30363d" stroke-width="1">
    <rect x="150" y="245" width="48" height="48"/><rect x="200" y="245" width="48" height="48"/><rect x="250" y="245" width="48" height="48"/><rect x="300" y="245" width="48" height="48"/><rect x="350" y="245" width="48" height="48"/><rect x="400" y="245" width="48" height="48"/>
    <rect x="150" y="295" width="48" height="48"/><rect x="200" y="295" width="48" height="48"/><rect x="250" y="295" width="48" height="48"/><rect x="300" y="295" width="48" height="48"/><rect x="350" y="295" width="48" height="48"/><rect x="400" y="295" width="48" height="48"/>
    <rect x="150" y="345" width="48" height="48"/><rect x="200" y="345" width="48" height="48"/><rect x="250" y="345" width="48" height="48"/><rect x="300" y="345" width="48" height="48"/><rect x="350" y="345" width="48" height="48"/><rect x="400" y="345" width="48" height="48"/>
    <rect x="150" y="395" width="48" height="48"/><rect x="200" y="395" width="48" height="48"/><rect x="250" y="395" width="48" height="48"/><rect x="300" y="395" width="48" height="48"/><rect x="350" y="395" width="48" height="48"/><rect x="400" y="395" width="48" height="48"/>
    <rect x="150" y="445" width="48" height="48"/><rect x="200" y="445" width="48" height="48"/><rect x="250" y="445" width="48" height="48"/><rect x="300" y="445" width="48" height="48"/><rect x="350" y="445" width="48" height="48"/><rect x="400" y="445" width="48" height="48"/>
  </g>
  <text x="360" y="740" fill="#8b949e" font-family="Verdana, Arial, sans-serif" font-size="15" text-anchor="middle">UC-005</text>

  <rect x="590" y="175" width="430" height="300" rx="16" fill="#111827" stroke="#3fb950" stroke-width="3"/>
  <rect x="590" y="175" width="430" height="46" rx="16" fill="#202734" stroke="#3fb950" stroke-width="3"/>
  <text x="625" y="205" fill="#f0f6fc" font-family="Verdana, Arial, sans-serif" font-size="18" font-weight="700">Hidden Interaction</text>
  <text x="805" y="275" fill="#c9d1d9" font-family="Verdana, Arial, sans-serif" font-size="26" font-weight="700" text-anchor="middle">click path / key chord</text>
  <text x="805" y="315" fill="#8b949e" font-family="Verdana, Arial, sans-serif" font-size="16" text-anchor="middle">an ordinary surface becomes a secret trigger</text>
  <rect x="675" y="350" width="260" height="56" rx="12" fill="#30363d" stroke="#58a6ff" stroke-width="2"/>
  <text x="805" y="386" fill="#c9d1d9" font-family="Verdana, Arial, sans-serif" font-size="18" text-anchor="middle">The desktop is not done yet</text>
  <text x="805" y="435" fill="#8b949e" font-family="Verdana, Arial, sans-serif" font-size="15" text-anchor="middle">UC-006</text>

  <rect x="1055" y="145" width="455" height="620" rx="18" fill="#101824" stroke="#f78166" stroke-width="3"/>
  <rect x="1055" y="145" width="455" height="46" rx="18" fill="#202734" stroke="#f78166" stroke-width="3"/>
  <text x="1090" y="175" fill="#f0f6fc" font-family="Verdana, Arial, sans-serif" font-size="18" font-weight="700">Secret Room / Reward Screen</text>
  <rect x="1090" y="225" width="385" height="470" rx="14" fill="#0d1117" stroke="#8b949e" stroke-width="2"/>
  <rect x="1135" y="270" width="295" height="86" rx="10" fill="#1f2937"/>
  <text x="1282" y="303" fill="#f0f6fc" font-family="Verdana, Arial, sans-serif" font-size="23" font-weight="700" text-anchor="middle">Hidden desktop</text>
  <text x="1282" y="332" fill="#8b949e" font-family="Verdana, Arial, sans-serif" font-size="15" text-anchor="middle">a second layer of the shell</text>
  <rect x="1160" y="390" width="110" height="110" rx="18" fill="#1f6feb"/>
  <rect x="1305" y="390" width="110" height="110" rx="18" fill="#3fb950"/>
  <rect x="1160" y="535" width="110" height="110" rx="18" fill="#d29922"/>
  <rect x="1305" y="535" width="110" height="110" rx="18" fill="#f78166"/>
  <text x="1215" y="455" fill="#ffffff" font-family="Verdana, Arial, sans-serif" font-size="16" text-anchor="middle">Egg</text>
  <text x="1360" y="455" fill="#ffffff" font-family="Verdana, Arial, sans-serif" font-size="16" text-anchor="middle">Alt</text>
  <text x="1215" y="600" fill="#ffffff" font-family="Verdana, Arial, sans-serif" font-size="16" text-anchor="middle">Spec</text>
  <text x="1360" y="600" fill="#ffffff" font-family="Verdana, Arial, sans-serif" font-size="16" text-anchor="middle">Room</text>
  <text x="1282" y="720" fill="#8b949e" font-family="Verdana, Arial, sans-serif" font-size="15" text-anchor="middle">return to desktop after discovery</text>
</svg>
