<svg xmlns="http://www.w3.org/2000/svg" width="420" height="720" viewBox="0 0 420 720" font-family="Georgia, 'Times New Roman', serif">
  <rect width="420" height="720" fill="#15110d"/>
  <rect x="0" y="0" width="420" height="40" fill="#2a2622"/>
  <text x="16" y="26" fill="#e8902a" font-size="15">Mobile reflow ≤768px (vertical stack)</text>

  <rect x="120" y="52" width="180" height="360" rx="22" fill="#0d0a07" stroke="#9c5b2e" stroke-width="3"/>
  <rect x="132" y="70" width="156" height="40" rx="6" fill="#211b14" stroke="#b68a4e"/>
  <text x="210" y="95" fill="#e8902a" font-size="12" text-anchor="middle">CPU FURNACE 63%</text>
  <rect x="132" y="118" width="156" height="40" rx="6" fill="#211b14" stroke="#b68a4e"/>
  <text x="210" y="143" fill="#e8902a" font-size="12" text-anchor="middle">GPU FORGE 38%</text>
  <rect x="132" y="166" width="156" height="40" rx="6" fill="#211b14" stroke="#b68a4e"/>
  <text x="210" y="191" fill="#e8902a" font-size="12" text-anchor="middle">MEMORY 70%</text>
  <rect x="132" y="214" width="156" height="40" rx="6" fill="#211b14" stroke="#b68a4e"/>
  <text x="210" y="239" fill="#e8902a" font-size="12" text-anchor="middle">DISK 78%</text>
  <rect x="132" y="262" width="156" height="40" rx="6" fill="#211b14" stroke="#b68a4e"/>
  <text x="210" y="287" fill="#e8902a" font-size="11" text-anchor="middle">NETWORK ↑4 ↓12</text>
  <rect x="132" y="310" width="156" height="40" rx="6" fill="#1c1610" stroke="#b68a4e"/>
  <text x="210" y="335" fill="#e8902a" font-size="12" text-anchor="middle">⚙ ALERTS</text>
  <text x="210" y="392" fill="#9c8f7e" font-size="10" text-anchor="middle">scrolls within phone frame</text>

  <text x="210" y="470" fill="#dce6ea" font-size="12" text-anchor="middle">Same data · animations reduced</text>
  <text x="210" y="494" fill="#9c8f7e" font-size="11" text-anchor="middle">Touch-operable threshold valves</text>
  <text x="210" y="518" fill="#9c8f7e" font-size="11" text-anchor="middle">Tap a panel for its tooltip detail</text>
  <text x="210" y="560" fill="#9c8f7e" font-size="10" text-anchor="middle">prefers-reduced-motion respected</text>
</svg>